# xmcd CD database file
#
# Track frame offsets:
#	150
#	20097
#	30069
#	43630
#	55036
#	88168
#	127944
#	169283
#
# Disc length: 2580 seconds
#
# Revision: 0
# Processed by: cddbd v1.5.2PL0 Copyright (c) Steve Scherf et al.
# Submitted via: CDex 1.70beta2
#
DISCID=5b0a1208
DTITLE=Piotr Kałuzny i jego goscie - benefis w klubie pod Pretekstem, Poznan 2006
DYEAR=2006
DGENRE=Jazz
TTITLE0=Classic Jazz Quartet "Preludium e-moll" Chopin
TTITLE1=Classic Jazz Quartett "menuet i Badinerie"
TTITLE2=Joanna Waluszko "Do I love"
TTITLE3=Joanna Waluszko "smile"
TTITLE4=Vintage Band "On the Green Dolphin Street"
TTITLE5=Vintage Band "J.P.
TTITLE6=Vintage Band "metryzacje"
TTITLE7=Vintage Band "spekulacje"
EXTD=YEAR: 2006
EXTT0=
EXTT1=
EXTT2=
EXTT3=
EXTT4=
EXTT5=
EXTT6=
EXTT7=
PLAYORDER=
